<svg xmlns="http://www.w3.org/2000/svg" width="28" height="28" viewBox="0 0 28 28"><g><g><path d="M16.3 10.443c.62 0 1.128.504 1.128 1.129S16.925 12.7 16.3 12.7h-2.727v2.727c0 .625-.504 1.128-1.129 1.128a1.126 1.126 0 0 1-1.128-1.128V12.7H8.587a1.126 1.126 0 0 1-1.129-1.128c0-.625.504-1.129 1.129-1.129h2.728V7.716c0-.625.503-1.128 1.128-1.128.625 0 1.129.503 1.129 1.128v2.727zM12.448 20.87a9.298 9.298 0 0 0 0-18.597c-5.14 0-9.306 4.16-9.306 9.299 0 5.138 4.166 9.298 9.306 9.298zm15.203 4.315c.443.442.443 1.156.006 1.598-.432.437-1.311.294-1.6 0l-6.267-6.267a11.514 11.514 0 0 1-7.342 2.628C6.053 23.144.874 17.96.874 11.572.874 5.182 6.048 0 12.444 0c6.395 0 11.573 5.183 11.573 11.572 0 2.787-.99 5.349-2.633 7.345z"/></g></g></svg>